<svg viewBox="0 0 256 256" fill="none" xmlns="http://www.w3.org/2000/svg">
  <!-- Flame icon -->
  <path d="M128 40C128 40 132 34 136 37C140 40 141 46 139 51C137 56 133 60 128 63C123 60 119 56 117 51C115 46 116 40 120 37C124 34 128 40 128 40Z" fill="#FF0000"/>
  <path d="M128 40C128 40 130 37 132 38C134 39 135 42 134 45C133 48 131 50 128 51C125 50 123 48 122 45C121 42 122 39 124 38C126 37 128 40 128 40Z" fill="#CC0000"/>
  
  <!-- iG letters in circular/rounded design -->
  <!-- i -->
  <circle cx="128" cy="140" r="8" fill="#FF0000"/>
  <rect x="124" y="148" width="8" height="40" rx="4" fill="#FF0000"/>
  
  <!-- G -->
  <path d="M128 100C108 100 92 116 92 136C92 156 108 172 128 172C148 172 164 156 164 136C164 116 148 100 128 100ZM128 160C114 160 104 150 104 136C104 122 114 112 128 112C142 112 152 122 152 136C152 150 142 160 128 160Z" fill="#FF0000"/>
  <path d="M140 136H128V148H140V136Z" fill="#FF0000"/>
</svg>
