<svg viewBox="0 0 366 80" fill="none" xmlns="http://www.w3.org/2000/svg">
  <!-- Flame icon above G -->
  <path d="M195 8C195 8 198 4 201 6C204 8 205 12 203 15C201 18 198 20 195 22C192 20 189 18 187 15C185 12 186 8 189 6C192 4 195 8 195 8Z" fill="#FF0000"/>
  <path d="M195 8C195 8 197 6 199 7C201 8 201 10 200 12C199 14 197 15 195 16C193 15 191 14 190 12C189 10 189 8 191 7C193 6 195 8 195 8Z" fill="#CC0000"/>
  
  <!-- iGird text -->
  <!-- Lowercase i -->
  <path d="M41.2045 26.686C35.1989 26.686 30.3109 29.4993 28.0114 34.914C25.6412 29.5058 20.7468 26.686 14.8182 26.686C6.37177 26.686 0 31.9465 0 42.84V64.2546H4.9651V42.84C4.9651 35.0617 9.26219 31.2785 15.1908 31.2785C21.1193 31.2785 25.5641 35.203 25.5641 42.84V64.2546H30.5292V42.84C30.5292 35.2094 34.9034 31.2785 40.832 31.2785C46.7606 31.2785 51.0576 35.0553 51.0576 42.84V64.2546H56.0227V42.84C56.0227 31.9465 49.651 26.686 41.2045 26.686Z" fill="#FF0000"/>
  
  <!-- G -->
  <path d="M73.7249 29.2379C63.7112 35.0187 60.7308 46.1498 66.2868 55.7844C71.8429 65.4126 82.9806 68.3994 92.9943 62.6186C100.375 58.3537 103.927 51.1727 102.995 43.921L98.3127 46.6252C98.3705 51.4682 95.7113 55.7459 90.7013 58.6363C83.578 62.7471 75.9344 60.9165 71.541 54.6411L101.126 37.5558L100.31 36.1427C94.7543 26.5145 83.745 23.4571 73.7313 29.2379H73.7249ZM69.4342 50.7038C66.8007 43.921 69.4085 37.0291 76.0243 33.2074C82.6402 29.3856 89.6735 30.4583 94.401 36.2904L69.4342 50.7038Z" fill="#FF0000"/>
  
  <!-- i -->
  <path d="M128.649 26.686C117.833 26.686 110.568 32.9871 110.568 45.1395V64.261H115.533V45.1395C115.533 36.0958 120.723 31.285 128.649 31.285C136.575 31.285 141.765 36.1023 141.765 45.1395V64.261H146.73V45.1395C146.73 32.9871 139.466 26.686 128.649 26.686Z" fill="#FF0000"/>
  
  <!-- r -->
  <path d="M179.63 50.7748C179.63 57.5191 175.853 60.6278 170.22 60.6278C164.587 60.6278 160.81 57.442 160.81 50.7748V32.1736H182.372V27.6518H160.81V14.6836H155.845V50.7748C155.845 60.4094 161.696 65.2267 170.22 65.2267C178.743 65.2267 184.447 60.4094 184.447 50.7748V49.9591H179.63V50.7748Z" fill="#FF0000"/>
  
  <!-- d -->
  <path d="M227.431 26.686C216.614 26.686 209.35 32.9871 209.35 45.1395V64.261H214.315V45.1395C214.315 36.0958 219.505 31.285 227.431 31.285C235.357 31.285 240.547 36.1023 240.547 45.1395V64.261H245.512V45.1395C245.512 32.9871 238.247 26.686 227.431 26.686Z" fill="#FF0000"/>
  
  <!-- Dot above first i -->
  <path d="M192.598 26.6894C192.598 24.5376 194.23 22.9126 196.375 22.9126C198.521 22.9126 200.152 24.5441 200.152 26.6894C200.152 28.8347 198.521 30.4661 196.375 30.4661C194.23 30.4661 192.598 28.8347 192.598 26.6894Z" fill="#FF0000"/>
  
  <!-- Vertical line for first i -->
  <path d="M196.381 36.8942C195.534 36.8942 194.718 36.785 193.934 36.5988V64.2694H198.899V36.5859C198.096 36.7851 197.255 36.9007 196.381 36.9007V36.8942Z" fill="#FF0000"/>
</svg>
